<svg width="24" height="24" viewBox="0 0 24 24" fill="none" xmlns="http://www.w3.org/2000/svg">
<g id="Group">
<path id="Vector" d="M6.126 13.8L3 17L5.5 18.5L7 21L10.899 16.905" stroke="#FCC607" stroke-width="1.5" stroke-linecap="round" stroke-linejoin="round"/>
<path id="Vector_2" d="M13.101 16.905L17 21L18.5 18.5L21 17L17.874 13.8" stroke="#FCC607" stroke-width="1.5" stroke-linecap="round" stroke-linejoin="round"/>
<path id="Vector_3" d="M16.9497 5.05025C19.6834 7.78392 19.6834 12.2161 16.9497 14.9497C14.2161 17.6834 9.78392 17.6834 7.05025 14.9497C4.31658 12.2161 4.31658 7.78392 7.05025 5.05025C9.78392 2.31658 14.2161 2.31658 16.9497 5.05025Z" stroke="#FCC607" stroke-width="1.5" stroke-linecap="round" stroke-linejoin="round"/>
<path id="Vector_4" d="M11.999 12.584L13.796 13.528C14.146 13.712 14.555 13.415 14.488 13.025L14.145 11.024L15.599 9.608C15.882 9.332 15.726 8.851 15.335 8.794L13.326 8.502L12.428 6.681C12.253 6.326 11.748 6.326 11.573 6.681L10.675 8.502L8.66503 8.795C8.27403 8.852 8.11803 9.333 8.40103 9.609L9.85503 11.025L9.51203 13.026C9.44503 13.416 9.85404 13.713 10.204 13.529L12.001 12.585H11.999V12.584Z" stroke="#FCC607" stroke-width="1.5" stroke-linecap="round" stroke-linejoin="round"/>
</g>
</svg>
